<?xml version="1.0" encoding="UTF-8"?><svg id="Layer_2" xmlns="http://www.w3.org/2000/svg" viewBox="0 0 158.71 106.66"><defs><style>.cls-1{fill:#143848;}.cls-2{fill:#00020f;}.cls-3{fill:#c1fd36;}.cls-4{fill:#153749;}.cls-5{fill:#89e22b;}.cls-6{fill:#133647;}</style></defs><g id="Layer_1-2"><path class="cls-3" d="M64.71,105.29C18,96.45-2.82,54.51.3,9.82.65,4.93,2.15,1.33,7.43.48c38.05.2,76.12-.21,114.17.02,3.8,1.71,5.2,3.97,5.79,8.06,1.52,10.45-.16,30.51-3.01,40.76-7.86,28.24-31.51,49.18-59.67,55.98"/><path class="cls-3" d="M64.71,43.16q2.33,5.9,8.23,8.23c.38.15.8,1.01,2.01,1.32,13.81,3.47,24.69-8.95,19.7-22.28-1.39-3.72-4.49-7.43-8.23-8.98-13.25-5.49-26.52,5.83-23.03,19.7.3,1.21,1.17,1.63,1.32,2.01Z"/><path class="cls-3" d="M75.4,82.3c-5.16,5.14,2.5,13.11,8,8.37s-2.51-13.84-8-8.37Z"/><path class="cls-5" d="M64.71,105.29c28.16-6.8,51.81-27.74,59.67-55.98,2.85-10.25,4.53-30.31,3.01-40.76-.59-4.08-1.99-6.34-5.79-8.06,8.72.05,22.25-1.18,30.27.05,2.8.43,5.33,2.39,6.06,5.17,1.2,4.62.76,22.56.39,28.12-3.13,46.69-47.86,80.11-93.6,71.45"/><path class="cls-2" d="M94.65,30.44l-21.71,20.96q-5.9-2.33-8.23-8.23l21.71-21.71c3.75,1.55,6.84,5.26,8.23,8.98Z"/><path class="cls-6" d="M86.42,21.46l-21.71,21.71c-.15-.38-1.01-.8-1.32-2.01-3.49-13.87,9.77-25.19,23.03-19.7Z"/><path class="cls-4" d="M72.94,51.4l21.71-20.96c4.99,13.32-5.88,25.75-19.7,22.28-1.21-.3-1.63-1.17-2.01-1.32Z"/><path class="cls-1" d="M75.4,82.3c5.49-5.47,13.33,3.79,8,8.37s-13.16-3.23-8-8.37Z"/></g></svg>