<?xml version="1.0" encoding="UTF-8"?>
<svg id="Layer_1" xmlns="http://www.w3.org/2000/svg" version="1.1" viewBox="0 0 20.9 43.5">
  <!-- Generator: Adobe Illustrator 29.0.1, SVG Export Plug-In . SVG Version: 2.1.0 Build 192)  -->
  <defs>
    <style>
      .st0 {
        fill: #f94ebc;
      }

      .st1 {
        fill: #fd7ec9;
      }

      .st2 {
        fill: #eb8c88;
      }
    </style>
  </defs>
  <path class="st0" d="M11.2,0h.4c3.5.4,6.9,2.9,8.4,6.1,3,6.6-1.5,14.4-8.8,14.8-.2.3-1.3.3-1.5,0C-.6,20.3-3.7,6.4,5.4,1.3c1.2-.7,2.4-1,3.8-1.3h2Z"/>
  <polygon class="st2" points="11.4 0 11.3 0 11.2 0 11.4 0"/>
  <path d="M11.2,21v22c-.4.9-1.5.6-1.5-.4v-21.6h1.5Z"/>
  <path class="st1" d="M8.3,5.9c1.9,1.9-.7,5.1-2.9,3.5-2.6-1.9.7-5.7,2.9-3.5Z"/>
</svg>