<?xml version="1.0" encoding="UTF-8"?><svg id="Layer_2" xmlns="http://www.w3.org/2000/svg" viewBox="0 0 171.31 183.09"><defs><style>.cls-1{fill:#13374b;}.cls-2{fill:#3f3fd1;}.cls-3{fill:#564ffb;}.cls-4{fill:#000210;}.cls-5{fill:#14384b;}</style></defs><g id="Layer_1-2"><path class="cls-3" d="M122.97,135.9c1.21-9.57-1.43-19.16-11.78-21.53-15.81,1.1-35.28-2.11-50.66-.11-6.68.87-11.69,6.4-12.42,13.03-1.27,11.5,1.85,21.02,14.58,22.11,11.75,1.01,33.97,1.01,45.71,0,3.27-.28,7.69-1.46,10.08-3.77-3.76,13.89-6.93,25.51-21.2,31.57-5.89,2.5-18.91,5.5-25.21,5.85-8.84.49-27.12-3.55-34.67-8.37-13.26-8.46-12.09-21.4-17.83-33.82-4.57-9.9-14.17-19.18-16.15-31.01L.21,95.47c.48-6.5-.65-13.83,0-20.21C3.83,39.54,35.23,6.82,70.57,1.16c10.61,3.36,20.4,6.36,29.88,12.41,40.93,26.09,52.38,83.47,22.51,122.33ZM70.57,58.05c.57,1.42.14,2.15,1.49,4.12,1.81,2.63,3.97,3.74,6.74,4.86,14.72,5.97,27.67-7,21.71-21.71-1.12-2.77-2.23-4.93-4.86-6.74-1.98-1.36-2.71-.92-4.12-1.49-.09-.04-.33-1.06-1.27-1.32-12.69-3.51-24.51,8.37-21.01,21.01.26.94,1.28,1.17,1.32,1.27Z"/><path class="cls-2" d="M144.06,162.61c-12.12,24.57-49.15,19.81-72,20.45,6.3-.35,19.32-3.35,25.21-5.85,14.27-6.06,17.44-17.68,21.2-31.57,1.87-1.81,4.17-7.17,4.49-9.73,29.87-38.85,18.41-96.23-22.51-122.33-9.48-6.04-19.27-9.05-29.88-12.41,70.57-11.31,124.65,62.36,89.95,125.51"/><path class="cls-4" d="M100.51,45.32l-21.71,21.71c-2.77-1.12-4.93-2.23-6.74-4.86-1.36-1.98-.92-2.71-1.49-4.12l20.96-20.96c1.42.57,2.15.14,4.12,1.49,2.63,1.81,3.74,3.97,4.86,6.74Z"/><path class="cls-1" d="M78.8,67.03l21.71-21.71c5.96,14.71-6.99,27.68-21.71,21.71Z"/><path class="cls-5" d="M91.53,37.09l-20.96,20.96c-.04-.09-1.06-.33-1.32-1.27-3.5-12.64,8.32-24.52,21.01-21.01.94.26,1.17,1.28,1.27,1.32Z"/></g></svg>