<?xml version="1.0" encoding="UTF-8"?><svg id="Layer_2" xmlns="http://www.w3.org/2000/svg" viewBox="0 0 194.37 145.81"><defs><style>.cls-1{fill:#01010f;}.cls-2{fill:#1a3346;}.cls-3{fill:#173548;}.cls-4{fill:#163447;}.cls-5{fill:#bc392b;}.cls-6{fill:#fc472b;}.cls-7{fill:#183346;}.cls-8{fill:#c63a24;}</style></defs><g id="Layer_1-2"><path class="cls-6" d="M.98,133.71C-2.81,89.56,3.19,46.75,40.43,18.91,49.76,11.94,70.97,1.21,82.6,1.57"/><path class="cls-6" d="M82.6,1.57c7.04.22,20.49,5.37,26.97,8.59,31.78,15.78,51.96,48.53,53.9,83.83.6,10.82,1.29,32.45-.1,42.63-.66,4.84-3.21,6.86-7.42,8.67-48.77.24-97.57-.19-146.36.02-6.31-.76-8.13-5.96-8.62-11.59"/><path class="cls-6" d="M82.6,52.47c1.93,4.74,4.4,6.44,8.98,8.23,14.42,5.65,27.25-7.6,21.71-21.71-1.62-4.12-4.84-7.35-8.98-8.98-14.37-5.65-27.52,8.17-21.71,22.46Z"/><path class="cls-6" d="M27.72,127.08c5.89-5.4-3.12-14.39-8.51-8.51-5.03,5.48,3.03,13.53,8.51,8.51Z"/><path class="cls-5" d="M82.6,1.57c43.68-8.38,87.27,17.58,104.18,57.88,10.77,25.67,6.8,52.14,7.2,79.32-.54,2.41-4.54,6.09-7,6.48-8.04,1.27-22.21,0-31.02.04,4.21-1.82,6.76-3.84,7.42-8.67,1.38-10.18.69-31.82.1-42.63-1.94-35.3-22.12-68.05-53.9-83.83-6.48-3.22-19.93-8.37-26.97-8.59"/><path class="cls-8" d="M170.73,116.98c-6.72,1.38-5.35,12.78,2.48,11.53,7.13-1.14,5.55-13.18-2.48-11.53Z"/><path class="cls-1" d="M113.29,39l-21.71,21.71c-4.58-1.79-7.05-3.49-8.98-8.23l21.71-22.46c4.14,1.63,7.36,4.86,8.98,8.98Z"/><path class="cls-4" d="M104.3,30.02l-21.71,22.46c-5.82-14.29,7.34-28.11,21.71-22.46Z"/><path class="cls-3" d="M91.58,60.71l21.71-21.71c5.55,14.11-7.29,27.35-21.71,21.71Z"/><path class="cls-2" d="M27.72,127.08c-5.48,5.02-13.53-3.03-8.51-8.51,5.39-5.88,14.4,3.11,8.51,8.51Z"/><path class="cls-7" d="M170.73,116.98c8.03-1.65,9.61,10.4,2.48,11.53-7.83,1.25-9.2-10.15-2.48-11.53Z"/></g></svg>