<?xml version="1.0" encoding="UTF-8"?><svg id="Layer_2" xmlns="http://www.w3.org/2000/svg" viewBox="0 0 48.94 34.85"><defs><style>.cls-1{stroke-width:1px;}.cls-1,.cls-2{fill:#f2f2f2;stroke:#f2f2f2;stroke-miterlimit:10;}.cls-2{stroke-width:1px;}</style></defs><g id="Layer_1-2"><path class="cls-2" d="M37.45,33.61c-2.63.08-5.26.15-7.9.24-1.06.03-2.05-.34-3.06-.56-4.55-1.02-9.09-2.08-13.64-3.12-.26-.06-.51-.05-.78.02-3.43.99-6.87,1.98-10.3,2.96-.71.2-.86.05-.74-.69.89-5.36,1.77-10.71,2.66-16.07.44-2.66.88-5.31,1.32-7.97.05-.29.17-.5.43-.67,2.98-1.98,5.95-3.97,8.92-5.97.3-.2.55-.24.9-.11,4.21,1.63,8.43,3.24,12.66,4.85.36.14.59.37.81.66,2.67,3.51,5.35,7.01,8.01,10.52.2.26.43.4.75.49,3.13.82,6.25,1.65,9.38,2.47.39.1.53.3.5.7-.27,3.46-.54,6.93-.8,10.39-.02.33-.06.65-.06.98,0,.46-.21.66-.69.67-1.2.01-2.4.09-3.6.1-1.59.02-3.18,0-4.77,0,0,.04,0,.08,0,.13ZM28.57,8.26c-.56,1.52-1.08,2.96-1.61,4.4-.05.13-.02.24,0,.37.14,1.47.28,2.95.43,4.42.03.28.05.57-.31.62-.38.05-.44-.24-.47-.54-.11-1.15-.25-2.29-.34-3.44-.05-.69-.22-1.36.07-2.07.55-1.33.99-2.71,1.52-4.06.18-.46.06-.61-.36-.77-3.79-1.44-7.57-2.9-11.36-4.35-.14-.05-.27-.18-.47-.08.05.12.1.24.16.36,1.77,3.7,3.53,7.4,5.31,11.1.22.46.15.72-.26,1.01-1.13.81-2.22,1.65-3.33,2.48-.18.13-.32.27-.4.49-1.34,3.61-2.69,7.22-4.06,10.82-.11.3-.06.39.24.45,2.68.6,5.37,1.22,8.05,1.84,2.38.54,4.76,1.09,7.16,1.63,0-.09.02-.17.01-.24-.2-2.42-.39-4.84-.61-7.26-.04-.46.07-.74.43-1.03,2.46-2.03,4.9-4.09,7.36-6.13.22-.19.27-.3.07-.54-.55-.68-1.06-1.38-1.59-2.08-1.86-2.44-3.72-4.88-5.64-7.4ZM1.87,32.25c.09,0,.12.02.14.02,3.27-.94,6.54-1.89,9.81-2.82.29-.08.38-.26.47-.5,1.37-3.68,2.75-7.36,4.13-11.04.12-.32.3-.56.57-.76,1.07-.78,2.12-1.59,3.19-2.37.2-.15.23-.26.12-.49-1.84-3.82-3.67-7.65-5.49-11.48-.12-.25-.2-.26-.43-.11-2.77,1.87-5.56,3.73-8.34,5.58-.17.11-.26.25-.29.45-.47,2.87-.94,5.74-1.42,8.61-.67,4.04-1.34,8.07-2.01,12.11-.15.93-.3,1.86-.46,2.79ZM38.54,32.79c1.57-.05,4.17-.13,6.77-.2.31,0,.45-.08.45-.41,0-.33.03-.65.06-.98.24-3.11.47-6.21.72-9.32.03-.4-.08-.55-.47-.65-3.07-.79-6.13-1.6-9.19-2.44-.33-.09-.52-.04-.77.17-2.33,1.97-4.68,3.93-7.03,5.87-.26.21-.35.42-.32.75.2,2.36.4,4.72.57,7.08.03.35.18.38.47.37,2.57-.08,5.14-.15,8.74-.25Z"/><path class="cls-1" d="M45.59,2.25c-.06,0-.13,0-.19,0-1.29,0-2.58,0-3.87,0-.46,0-.79-.29-.81-.7-.02-.45.3-.8.76-.8.84,0,1.67,0,2.51,0,1.13,0,2.26,0,3.38,0,.52,0,.83.3.83.83,0,1.96,0,3.93,0,5.89,0,.38-.26.69-.61.75-.37.06-.73-.14-.85-.49-.04-.11-.04-.23-.04-.35,0-1.28,0-2.56,0-3.84v-.22c-.07.07-.12.11-.17.16-1.99,1.99-3.98,3.97-5.96,5.96-.2.2-.42.31-.71.27-.29-.05-.49-.21-.59-.49-.1-.28-.04-.54.16-.76.12-.13.25-.25.37-.37,1.88-1.88,3.75-3.75,5.63-5.63.06-.06.12-.11.18-.16,0-.01-.01-.03-.02-.04Z"/></g></svg>