<?xml version="1.0" encoding="UTF-8"?><svg id="Layer_2" xmlns="http://www.w3.org/2000/svg" viewBox="0 0 304.88 86.38"><defs><style>.cls-1{fill:#183747;}.cls-2{fill:#ffd900;}.cls-3{fill:#163646;}.cls-4{fill:#193847;}.cls-5{fill:#ffb600;}.cls-6{fill:#01020f;}.cls-7{fill:#173848;}</style></defs><g id="Layer_1-2"><path class="cls-2" d="M261,1.05c14.97,2.17,13.55,19.36,12.72,31.06-1.71,24.15-17.24,44.42-40.25,51.82l-10.64,2.46H49.17c-21.67-4.27-39.79-18.69-46.36-40.09C.32,38.2-.74,20.24.56,11.95,1.3,7.17,5.78,2.94,10.22,1.4l250.78-.35ZM19.76,16.93c-4.9,1.13-4.92,9.79,0,10.91,10.89,2.46,10.04-13.22,0-10.91ZM137.49,45.96c2.03,4.73,3.46,6.3,8.23,8.23,13.67,5.54,25.42-4.71,23.17-19.07-.27-1.72-1.17-1.95-1.46-2.64-2.06-4.8-3.38-6.15-8.23-8.23-.68-.29-.92-1.2-2.64-1.46-13.3-2.06-22.58,7.29-20.54,20.54.27,1.72,1.17,1.95,1.46,2.64Z"/><path class="cls-5" d="M255.01,86.38h-32.19l10.64-2.46c23.01-7.39,38.54-27.67,40.25-51.82.83-11.7,2.25-28.88-12.72-31.06.78-1.24,2.84-.75,4.11-.76,7.92-.1,23.95-1.14,30.74,1.47,3.79,1.46,7.89,6.15,8.53,10.19,1.12,7.16.28,23.57-1.35,30.75-4.04,17.83-17.58,32.89-34.34,39.77l-13.67,3.92ZM280.99,16.93c-6.78,2.03-3.36,14.49,5.28,10.52,5.05-2.32,2.36-12.81-5.28-10.52Z"/><path class="cls-6" d="M167.44,32.49l-21.71,21.71c-4.77-1.93-6.21-3.51-8.23-8.23l21.71-21.71c4.86,2.08,6.18,3.43,8.23,8.23Z"/><path class="cls-3" d="M145.73,54.2l21.71-21.71c.29.69,1.19.91,1.46,2.64,2.25,14.36-9.5,24.62-23.17,19.07Z"/><path class="cls-7" d="M159.2,24.25l-21.71,21.71c-.29-.68-1.2-.92-1.46-2.64-2.05-13.25,7.24-22.59,20.54-20.54,1.72.27,1.95,1.17,2.64,1.46Z"/><path class="cls-4" d="M19.76,16.93c10.04-2.31,10.89,13.37,0,10.91-4.92-1.11-4.9-9.78,0-10.91Z"/><path class="cls-1" d="M280.99,16.93c7.65-2.29,10.34,8.19,5.28,10.52-8.64,3.97-12.06-8.48-5.28-10.52Z"/></g></svg>